<svg width="20" height="16" viewBox="0 0 20 16" fill="none" xmlns="http://www.w3.org/2000/svg">
<path fill-rule="evenodd" clip-rule="evenodd" d="M0.228361 1.85195C0 2.40326 0 3.10218 0 4.5V5.25C0 5.66421 0.335786 6 0.75 6H1C2.10457 6 3 6.89543 3 8C3 9.10457 2.10457 10 1 10H0.75C0.335786 10 0 10.3358 0 10.75V11.5C0 12.8978 0 13.5967 0.228361 14.1481C0.532843 14.8831 1.11687 15.4672 1.85195 15.7716C2.40326 16 3.10218 16 4.5 16H15.5C16.8978 16 17.5967 16 18.1481 15.7716C18.8831 15.4672 19.4672 14.8831 19.7716 14.1481C20 13.5967 20 12.8978 20 11.5V10.75C20 10.3358 19.6642 10 19.25 10H19C17.8954 10 17 9.10457 17 8C17 6.89543 17.8954 6 19 6H19.25C19.6642 6 20 5.66421 20 5.25V4.5C20 3.10218 20 2.40326 19.7716 1.85195C19.4672 1.11687 18.8831 0.532843 18.1481 0.228361C17.5967 0 16.8978 0 15.5 0H4.5C3.10218 0 2.40326 0 1.85195 0.228361C1.11687 0.532843 0.532843 1.11687 0.228361 1.85195ZM7.854 4.3L5.654 9.503V10.603H7.964V12H9.174V10.603H9.746V9.503H9.174V4.3H7.854ZM7.964 6.654V9.503H6.765L7.964 6.654ZM11.5113 9.635L11.8853 8.931L13.0623 12H14.3053L12.6223 7.732L14.3053 4.3H13.1173L11.5113 7.655V4.3H10.3013V12H11.5113V9.635Z" fill="white"/>
</svg>
